<svg xmlns="http://www.w3.org/2000/svg" viewBox="0 0 16 16" width="16" height="16">
  <path fill="currentColor" d="M2 2.75A.75.75 0 0 1 2.75 2h3.5c.966 0 1.83.469 2.25 1.183A2.685 2.685 0 0 1 10.75 2h3.5a.75.75 0 0 1 .75.75v9.5a.75.75 0 0 1-.75.75h-4.25a.75.75 0 0 0-.6.3l-.4.533a.75.75 0 0 1-1.2 0l-.4-.533a.75.75 0 0 0-.6-.3H2.75a.75.75 0 0 1-.75-.75v-9.5Zm1.5.75v8h3.5c.483 0 .94.146 1.328.398a2.18 2.18 0 0 0-.078-.585c-.16-.6-.59-1.063-1.25-1.063H4.5V3.5h-1Zm6.75 0v8h3.25v-8H10.75a1.25 1.25 0 0 0-1.25 1.25v6.5c.388-.252.845-.398 1.328-.398H10.5V4.5h2.5"/>
</svg>
